<mxfile host="Electron" modified="2023-10-12T18:49:16.306Z" agent="Mozilla/5.0 (Windows NT 10.0; Win64; x64) AppleWebKit/537.36 (KHTML, like Gecko) draw.io/21.6.8 Chrome/114.0.5735.289 Electron/25.5.0 Safari/537.36" etag="mC-VOaWkRiYt731LGiPA" version="21.6.8" type="device">
  <diagram name="Page-1" id="z6FV8i_VW9xcOQngMTFC">
    <mxGraphModel dx="1577" dy="2951" grid="1" gridSize="10" guides="1" tooltips="1" connect="1" arrows="1" fold="1" page="1" pageScale="1" pageWidth="850" pageHeight="1100" math="0" shadow="0">
      <root>
        <mxCell id="0" />
        <mxCell id="1" parent="0" />
        <mxCell id="iODqSjRYQpv7o8orPfvo-1" value="Item_No" style="rounded=0;whiteSpace=wrap;html=1;fillColor=#FF6666;" parent="1" vertex="1">
          <mxGeometry x="280" y="-2100" width="120" height="60" as="geometry" />
        </mxCell>
        <mxCell id="iODqSjRYQpv7o8orPfvo-2" value="O_Id" style="rounded=0;whiteSpace=wrap;html=1;fillColor=#FF6666;" parent="1" vertex="1">
          <mxGeometry x="400" y="-2100" width="120" height="60" as="geometry" />
        </mxCell>
        <mxCell id="iODqSjRYQpv7o8orPfvo-3" value="C_Id" style="rounded=0;whiteSpace=wrap;html=1;fillColor=#FF6666;" parent="1" vertex="1">
          <mxGeometry x="160" y="-2100" width="120" height="60" as="geometry" />
        </mxCell>
        <mxCell id="iODqSjRYQpv7o8orPfvo-4" value="&lt;font color=&quot;#3333ff&quot; style=&quot;font-size: 18px;&quot;&gt;Provide&lt;/font&gt;" style="text;html=1;align=center;verticalAlign=middle;resizable=0;points=[];autosize=1;strokeColor=none;fillColor=none;" parent="1" vertex="1">
          <mxGeometry x="160" y="-2140" width="80" height="40" as="geometry" />
        </mxCell>
        <mxCell id="iODqSjRYQpv7o8orPfvo-5" value="Item_Name" style="rounded=0;whiteSpace=wrap;html=1;fontStyle=1" parent="1" vertex="1">
          <mxGeometry x="280" y="-1870" width="120" height="60" as="geometry" />
        </mxCell>
        <mxCell id="iODqSjRYQpv7o8orPfvo-6" value="I_Type" style="rounded=0;whiteSpace=wrap;html=1;fontStyle=1" parent="1" vertex="1">
          <mxGeometry x="400" y="-1870" width="120" height="60" as="geometry" />
        </mxCell>
        <mxCell id="iODqSjRYQpv7o8orPfvo-7" value="I_Qty" style="rounded=0;whiteSpace=wrap;html=1;fontStyle=1" parent="1" vertex="1">
          <mxGeometry x="520" y="-1870" width="120" height="60" as="geometry" />
        </mxCell>
        <mxCell id="iODqSjRYQpv7o8orPfvo-8" value="I_Description" style="rounded=0;whiteSpace=wrap;html=1;fontStyle=1" parent="1" vertex="1">
          <mxGeometry x="640" y="-1870" width="120" height="60" as="geometry" />
        </mxCell>
        <mxCell id="iODqSjRYQpv7o8orPfvo-9" style="edgeStyle=orthogonalEdgeStyle;rounded=0;orthogonalLoop=1;jettySize=auto;html=1;exitX=1;exitY=0;exitDx=0;exitDy=0;entryX=1;entryY=0.25;entryDx=0;entryDy=0;" parent="1" source="iODqSjRYQpv7o8orPfvo-6" target="iODqSjRYQpv7o8orPfvo-6" edge="1">
          <mxGeometry relative="1" as="geometry" />
        </mxCell>
        <mxCell id="iODqSjRYQpv7o8orPfvo-10" value="Item_No" style="rounded=0;whiteSpace=wrap;html=1;fillColor=#1ba1e2;fontColor=#ffffff;strokeColor=#006EAF;gradientColor=#6666FF;fontStyle=4" parent="1" vertex="1">
          <mxGeometry x="160" y="-1870" width="120" height="60" as="geometry" />
        </mxCell>
        <mxCell id="iODqSjRYQpv7o8orPfvo-11" value="&lt;font color=&quot;#3333ff&quot; style=&quot;font-size: 18px;&quot;&gt;Item&lt;/font&gt;" style="text;html=1;align=center;verticalAlign=middle;resizable=0;points=[];autosize=1;strokeColor=none;fillColor=none;" parent="1" vertex="1">
          <mxGeometry x="160" y="-1910" width="60" height="40" as="geometry" />
        </mxCell>
        <mxCell id="iODqSjRYQpv7o8orPfvo-12" value="C_ID" style="rounded=0;whiteSpace=wrap;html=1;fillColor=#1ba1e2;fontColor=#ffffff;strokeColor=#006EAF;gradientColor=#6666FF;fontStyle=4" parent="1" vertex="1">
          <mxGeometry x="280" y="-1640" width="120" height="60" as="geometry" />
        </mxCell>
        <mxCell id="iODqSjRYQpv7o8orPfvo-13" value="Email" style="rounded=0;whiteSpace=wrap;html=1;" parent="1" vertex="1">
          <mxGeometry x="160" y="-1640" width="120" height="60" as="geometry" />
        </mxCell>
        <mxCell id="iODqSjRYQpv7o8orPfvo-14" value="Dob" style="rounded=0;whiteSpace=wrap;html=1;" parent="1" vertex="1">
          <mxGeometry x="400" y="-1640" width="120" height="60" as="geometry" />
        </mxCell>
        <mxCell id="iODqSjRYQpv7o8orPfvo-15" value="C_Type" style="rounded=0;whiteSpace=wrap;html=1;" parent="1" vertex="1">
          <mxGeometry x="520" y="-1640" width="120" height="60" as="geometry" />
        </mxCell>
        <mxCell id="iODqSjRYQpv7o8orPfvo-16" value="First_Name" style="rounded=0;whiteSpace=wrap;html=1;" parent="1" vertex="1">
          <mxGeometry x="640" y="-1640" width="120" height="60" as="geometry" />
        </mxCell>
        <mxCell id="iODqSjRYQpv7o8orPfvo-17" value="Last_Name" style="rounded=0;whiteSpace=wrap;html=1;" parent="1" vertex="1">
          <mxGeometry x="760" y="-1640" width="120" height="60" as="geometry" />
        </mxCell>
        <mxCell id="iODqSjRYQpv7o8orPfvo-18" value="M_Id" style="rounded=0;whiteSpace=wrap;html=1;fillColor=#FF6666;" parent="1" vertex="1">
          <mxGeometry x="880" y="-1640" width="120" height="60" as="geometry" />
        </mxCell>
        <mxCell id="iODqSjRYQpv7o8orPfvo-19" value="&lt;font color=&quot;#3333ff&quot; style=&quot;font-size: 18px;&quot;&gt;Customer&lt;/font&gt;" style="text;html=1;align=center;verticalAlign=middle;resizable=0;points=[];autosize=1;strokeColor=none;fillColor=none;" parent="1" vertex="1">
          <mxGeometry x="160" y="-1680" width="100" height="40" as="geometry" />
        </mxCell>
        <mxCell id="iODqSjRYQpv7o8orPfvo-20" value="C-phone" style="rounded=0;whiteSpace=wrap;html=1;" parent="1" vertex="1">
          <mxGeometry x="280" y="-1400" width="120" height="60" as="geometry" />
        </mxCell>
        <mxCell id="iODqSjRYQpv7o8orPfvo-21" value="&lt;font color=&quot;#3333ff&quot; style=&quot;font-size: 18px;&quot;&gt;Customer_Contact&lt;/font&gt;" style="text;html=1;align=center;verticalAlign=middle;resizable=0;points=[];autosize=1;strokeColor=none;fillColor=none;" parent="1" vertex="1">
          <mxGeometry x="160" y="-1440" width="170" height="40" as="geometry" />
        </mxCell>
        <mxCell id="iODqSjRYQpv7o8orPfvo-22" value="C_Id" style="rounded=0;whiteSpace=wrap;html=1;fillColor=#FF9999;" parent="1" vertex="1">
          <mxGeometry x="160" y="-1400" width="120" height="60" as="geometry" />
        </mxCell>
        <mxCell id="iODqSjRYQpv7o8orPfvo-23" value="Sur_Name" style="rounded=0;whiteSpace=wrap;html=1;" parent="1" vertex="1">
          <mxGeometry x="280" y="-1200" width="120" height="60" as="geometry" />
        </mxCell>
        <mxCell id="iODqSjRYQpv7o8orPfvo-24" value="First_Name" style="rounded=0;whiteSpace=wrap;html=1;" parent="1" vertex="1">
          <mxGeometry x="400" y="-1200" width="120" height="60" as="geometry" />
        </mxCell>
        <mxCell id="iODqSjRYQpv7o8orPfvo-25" value="Last_Name" style="rounded=0;whiteSpace=wrap;html=1;" parent="1" vertex="1">
          <mxGeometry x="520" y="-1200" width="120" height="60" as="geometry" />
        </mxCell>
        <mxCell id="iODqSjRYQpv7o8orPfvo-26" value="Dob" style="rounded=0;whiteSpace=wrap;html=1;" parent="1" vertex="1">
          <mxGeometry x="640" y="-1200" width="120" height="60" as="geometry" />
        </mxCell>
        <mxCell id="iODqSjRYQpv7o8orPfvo-27" value="Email" style="rounded=0;whiteSpace=wrap;html=1;" parent="1" vertex="1">
          <mxGeometry x="760" y="-1200" width="120" height="60" as="geometry" />
        </mxCell>
        <mxCell id="iODqSjRYQpv7o8orPfvo-28" value="Address" style="rounded=0;whiteSpace=wrap;html=1;" parent="1" vertex="1">
          <mxGeometry x="880" y="-1200" width="120" height="60" as="geometry" />
        </mxCell>
        <mxCell id="iODqSjRYQpv7o8orPfvo-29" value="&lt;font color=&quot;#3333ff&quot; style=&quot;font-size: 18px;&quot;&gt;Manager&lt;/font&gt;" style="text;html=1;align=center;verticalAlign=middle;resizable=0;points=[];autosize=1;strokeColor=none;fillColor=none;" parent="1" vertex="1">
          <mxGeometry x="160" y="-1240" width="90" height="40" as="geometry" />
        </mxCell>
        <mxCell id="iODqSjRYQpv7o8orPfvo-30" value="M_Id" style="rounded=0;whiteSpace=wrap;html=1;fillColor=#1ba1e2;fontColor=#ffffff;strokeColor=#006EAF;gradientColor=#6666FF;fontStyle=4" parent="1" vertex="1">
          <mxGeometry x="160" y="-1200" width="120" height="60" as="geometry" />
        </mxCell>
        <mxCell id="iODqSjRYQpv7o8orPfvo-31" value="Phone" style="rounded=0;whiteSpace=wrap;html=1;" parent="1" vertex="1">
          <mxGeometry x="280" y="-970" width="120" height="60" as="geometry" />
        </mxCell>
        <mxCell id="iODqSjRYQpv7o8orPfvo-32" value="M_Id" style="rounded=0;whiteSpace=wrap;html=1;fillColor=#FF6666;" parent="1" vertex="1">
          <mxGeometry x="160" y="-970" width="120" height="60" as="geometry" />
        </mxCell>
        <mxCell id="iODqSjRYQpv7o8orPfvo-33" value="&lt;font color=&quot;#3333ff&quot; style=&quot;font-size: 18px;&quot;&gt;Manager_Contact&lt;/font&gt;" style="text;html=1;align=center;verticalAlign=middle;resizable=0;points=[];autosize=1;strokeColor=none;fillColor=none;" parent="1" vertex="1">
          <mxGeometry x="160" y="-1010" width="170" height="40" as="geometry" />
        </mxCell>
        <mxCell id="iODqSjRYQpv7o8orPfvo-34" value="Emp_Id" style="rounded=0;whiteSpace=wrap;html=1;fillColor=#FF6666;" parent="1" vertex="1">
          <mxGeometry x="275" y="-570" width="120" height="60" as="geometry" />
        </mxCell>
        <mxCell id="iODqSjRYQpv7o8orPfvo-35" value="D_Name" style="rounded=0;whiteSpace=wrap;html=1;" parent="1" vertex="1">
          <mxGeometry x="395" y="-570" width="120" height="60" as="geometry" />
        </mxCell>
        <mxCell id="iODqSjRYQpv7o8orPfvo-36" value="Address" style="rounded=0;whiteSpace=wrap;html=1;" parent="1" vertex="1">
          <mxGeometry x="515" y="-570" width="120" height="60" as="geometry" />
        </mxCell>
        <mxCell id="iODqSjRYQpv7o8orPfvo-37" value="Dob" style="rounded=0;whiteSpace=wrap;html=1;" parent="1" vertex="1">
          <mxGeometry x="635" y="-570" width="120" height="60" as="geometry" />
        </mxCell>
        <mxCell id="iODqSjRYQpv7o8orPfvo-38" value="Address" style="rounded=0;whiteSpace=wrap;html=1;" parent="1" vertex="1">
          <mxGeometry x="280" y="-770" width="120" height="60" as="geometry" />
        </mxCell>
        <mxCell id="iODqSjRYQpv7o8orPfvo-39" value="Email" style="rounded=0;whiteSpace=wrap;html=1;" parent="1" vertex="1">
          <mxGeometry x="400" y="-770" width="120" height="60" as="geometry" />
        </mxCell>
        <mxCell id="iODqSjRYQpv7o8orPfvo-41" value="Dob" style="rounded=0;whiteSpace=wrap;html=1;" parent="1" vertex="1">
          <mxGeometry x="520" y="-770" width="120" height="60" as="geometry" />
        </mxCell>
        <mxCell id="iODqSjRYQpv7o8orPfvo-42" value="Emp_Phone" style="rounded=0;whiteSpace=wrap;html=1;" parent="1" vertex="1">
          <mxGeometry x="640" y="-770" width="120" height="60" as="geometry" />
        </mxCell>
        <mxCell id="iODqSjRYQpv7o8orPfvo-43" value="First_Name" style="rounded=0;whiteSpace=wrap;html=1;" parent="1" vertex="1">
          <mxGeometry x="760" y="-770" width="120" height="60" as="geometry" />
        </mxCell>
        <mxCell id="iODqSjRYQpv7o8orPfvo-44" value="Last_Name" style="rounded=0;whiteSpace=wrap;html=1;" parent="1" vertex="1">
          <mxGeometry x="880" y="-770" width="120" height="60" as="geometry" />
        </mxCell>
        <mxCell id="iODqSjRYQpv7o8orPfvo-45" value="Emp_Id" style="rounded=0;whiteSpace=wrap;html=1;fillColor=#1ba1e2;fontColor=#ffffff;strokeColor=#006EAF;gradientColor=#6666FF;fontStyle=4" parent="1" vertex="1">
          <mxGeometry x="160" y="-770" width="120" height="60" as="geometry" />
        </mxCell>
        <mxCell id="iODqSjRYQpv7o8orPfvo-46" value="M_Id" style="rounded=0;whiteSpace=wrap;html=1;gradientColor=#FF6666;fillColor=#FF6666;" parent="1" vertex="1">
          <mxGeometry x="1000" y="-770" width="120" height="60" as="geometry" />
        </mxCell>
        <mxCell id="iODqSjRYQpv7o8orPfvo-47" value="D_Id" style="rounded=0;whiteSpace=wrap;html=1;fillColor=#1ba1e2;fontColor=#ffffff;strokeColor=#006EAF;gradientColor=#6666FF;fontStyle=4" parent="1" vertex="1">
          <mxGeometry x="160" y="-570" width="120" height="60" as="geometry" />
        </mxCell>
        <mxCell id="iODqSjRYQpv7o8orPfvo-48" value="&lt;font color=&quot;#3333ff&quot; style=&quot;font-size: 18px;&quot;&gt;Dependent&lt;/font&gt;" style="text;html=1;align=center;verticalAlign=middle;resizable=0;points=[];autosize=1;strokeColor=none;fillColor=none;" parent="1" vertex="1">
          <mxGeometry x="160" y="-610" width="110" height="40" as="geometry" />
        </mxCell>
        <mxCell id="iODqSjRYQpv7o8orPfvo-49" value="M_Name" style="rounded=0;whiteSpace=wrap;html=1;" parent="1" vertex="1">
          <mxGeometry x="280" y="-350" width="120" height="60" as="geometry" />
        </mxCell>
        <mxCell id="iODqSjRYQpv7o8orPfvo-50" value="Dob" style="rounded=0;whiteSpace=wrap;html=1;" parent="1" vertex="1">
          <mxGeometry x="400" y="-350" width="120" height="60" as="geometry" />
        </mxCell>
        <mxCell id="iODqSjRYQpv7o8orPfvo-51" value="Phone_No" style="rounded=0;whiteSpace=wrap;html=1;" parent="1" vertex="1">
          <mxGeometry x="520" y="-350" width="120" height="60" as="geometry" />
        </mxCell>
        <mxCell id="iODqSjRYQpv7o8orPfvo-52" value="Email" style="rounded=0;whiteSpace=wrap;html=1;" parent="1" vertex="1">
          <mxGeometry x="640" y="-350" width="120" height="60" as="geometry" />
        </mxCell>
        <mxCell id="iODqSjRYQpv7o8orPfvo-53" value="M_Id" style="rounded=0;whiteSpace=wrap;html=1;fillColor=#FF6666;" parent="1" vertex="1">
          <mxGeometry x="760" y="-350" width="120" height="60" as="geometry" />
        </mxCell>
        <mxCell id="iODqSjRYQpv7o8orPfvo-54" value="&lt;font color=&quot;#3333ff&quot; style=&quot;font-size: 18px;&quot;&gt;Marketer&lt;/font&gt;" style="text;html=1;align=center;verticalAlign=middle;resizable=0;points=[];autosize=1;strokeColor=none;fillColor=none;" parent="1" vertex="1">
          <mxGeometry x="160" y="-390" width="90" height="40" as="geometry" />
        </mxCell>
        <mxCell id="iODqSjRYQpv7o8orPfvo-55" value="Marketer_Id" style="rounded=0;whiteSpace=wrap;html=1;fillColor=#1ba1e2;fontColor=#ffffff;strokeColor=#006EAF;gradientColor=#6666FF;fontStyle=4" parent="1" vertex="1">
          <mxGeometry x="160" y="-350" width="120" height="60" as="geometry" />
        </mxCell>
        <mxCell id="iODqSjRYQpv7o8orPfvo-62" value="S_Name" style="rounded=0;whiteSpace=wrap;html=1;" parent="1" vertex="1">
          <mxGeometry x="275" y="-120" width="120" height="60" as="geometry" />
        </mxCell>
        <mxCell id="iODqSjRYQpv7o8orPfvo-63" value="S_Description" style="rounded=0;whiteSpace=wrap;html=1;" parent="1" vertex="1">
          <mxGeometry x="395" y="-120" width="120" height="60" as="geometry" />
        </mxCell>
        <mxCell id="iODqSjRYQpv7o8orPfvo-64" value="Price" style="rounded=0;whiteSpace=wrap;html=1;" parent="1" vertex="1">
          <mxGeometry x="515" y="-120" width="120" height="60" as="geometry" />
        </mxCell>
        <mxCell id="iODqSjRYQpv7o8orPfvo-65" value="Duration" style="rounded=0;whiteSpace=wrap;html=1;" parent="1" vertex="1">
          <mxGeometry x="870" y="-120" width="120" height="60" as="geometry" />
        </mxCell>
        <mxCell id="iODqSjRYQpv7o8orPfvo-66" value="Marketer_Id" style="rounded=0;whiteSpace=wrap;html=1;fillColor=#FF6666;" parent="1" vertex="1">
          <mxGeometry x="635" y="-120" width="120" height="60" as="geometry" />
        </mxCell>
        <mxCell id="iODqSjRYQpv7o8orPfvo-67" value="S_Id" style="rounded=0;whiteSpace=wrap;html=1;fillColor=#1ba1e2;fontColor=#ffffff;strokeColor=#006EAF;gradientColor=#6666FF;fontStyle=4" parent="1" vertex="1">
          <mxGeometry x="155" y="-120" width="120" height="60" as="geometry" />
        </mxCell>
        <mxCell id="iODqSjRYQpv7o8orPfvo-68" value="&lt;font color=&quot;#3333ff&quot; style=&quot;font-size: 18px;&quot;&gt;Service&lt;/font&gt;" style="text;html=1;align=center;verticalAlign=middle;resizable=0;points=[];autosize=1;strokeColor=none;fillColor=none;" parent="1" vertex="1">
          <mxGeometry x="155" y="-160" width="80" height="40" as="geometry" />
        </mxCell>
        <mxCell id="iODqSjRYQpv7o8orPfvo-69" value="C_Id" style="rounded=0;whiteSpace=wrap;html=1;fillColor=#FF6666;" parent="1" vertex="1">
          <mxGeometry x="755" y="-120" width="120" height="60" as="geometry" />
        </mxCell>
        <mxCell id="iODqSjRYQpv7o8orPfvo-70" value="P_Id" style="rounded=0;whiteSpace=wrap;html=1;fillColor=#FF6666;" parent="1" vertex="1">
          <mxGeometry x="160" y="120" width="120" height="60" as="geometry" />
        </mxCell>
        <mxCell id="iODqSjRYQpv7o8orPfvo-71" value="S_Id" style="rounded=0;whiteSpace=wrap;html=1;fillColor=#FF6666;" parent="1" vertex="1">
          <mxGeometry x="280" y="120" width="120" height="60" as="geometry" />
        </mxCell>
        <mxCell id="iODqSjRYQpv7o8orPfvo-72" value="&lt;font color=&quot;#3333ff&quot; style=&quot;font-size: 18px;&quot;&gt;Online_Pay&lt;/font&gt;" style="text;html=1;align=center;verticalAlign=middle;resizable=0;points=[];autosize=1;strokeColor=none;fillColor=none;" parent="1" vertex="1">
          <mxGeometry x="160" y="80" width="120" height="40" as="geometry" />
        </mxCell>
        <mxCell id="iODqSjRYQpv7o8orPfvo-73" value="P_Type" style="rounded=0;whiteSpace=wrap;html=1;" parent="1" vertex="1">
          <mxGeometry x="280" y="350" width="120" height="60" as="geometry" />
        </mxCell>
        <mxCell id="iODqSjRYQpv7o8orPfvo-74" value="Date" style="rounded=0;whiteSpace=wrap;html=1;" parent="1" vertex="1">
          <mxGeometry x="400" y="350" width="120" height="60" as="geometry" />
        </mxCell>
        <mxCell id="iODqSjRYQpv7o8orPfvo-75" value="Invoice_No" style="rounded=0;whiteSpace=wrap;html=1;" parent="1" vertex="1">
          <mxGeometry x="520" y="350" width="120" height="60" as="geometry" />
        </mxCell>
        <mxCell id="iODqSjRYQpv7o8orPfvo-76" value="P_Method" style="rounded=0;whiteSpace=wrap;html=1;" parent="1" vertex="1">
          <mxGeometry x="640" y="350" width="120" height="60" as="geometry" />
        </mxCell>
        <mxCell id="iODqSjRYQpv7o8orPfvo-77" value="Amount" style="rounded=0;whiteSpace=wrap;html=1;" parent="1" vertex="1">
          <mxGeometry x="760" y="350" width="120" height="60" as="geometry" />
        </mxCell>
        <mxCell id="iODqSjRYQpv7o8orPfvo-78" value="&lt;font color=&quot;#3333ff&quot; style=&quot;font-size: 18px;&quot;&gt;Payment&lt;/font&gt;" style="text;html=1;align=center;verticalAlign=middle;resizable=0;points=[];autosize=1;strokeColor=none;fillColor=none;" parent="1" vertex="1">
          <mxGeometry x="160" y="310" width="90" height="40" as="geometry" />
        </mxCell>
        <mxCell id="iODqSjRYQpv7o8orPfvo-79" value="P_Id" style="rounded=0;whiteSpace=wrap;html=1;fillColor=#1ba1e2;fontColor=#ffffff;strokeColor=#006EAF;gradientColor=#6666FF;fontStyle=4" parent="1" vertex="1">
          <mxGeometry x="160" y="350" width="120" height="60" as="geometry" />
        </mxCell>
        <mxCell id="iODqSjRYQpv7o8orPfvo-80" value="M_Id" style="rounded=0;whiteSpace=wrap;html=1;fontStyle=1;fillColor=#FF6666;" parent="1" vertex="1">
          <mxGeometry x="880" y="350" width="120" height="60" as="geometry" />
        </mxCell>
        <mxCell id="iODqSjRYQpv7o8orPfvo-81" value="P_Id" style="rounded=0;whiteSpace=wrap;html=1;fillColor=#FF6666;" parent="1" vertex="1">
          <mxGeometry x="160" y="600" width="120" height="60" as="geometry" />
        </mxCell>
        <mxCell id="iODqSjRYQpv7o8orPfvo-82" value="O_Id" style="rounded=0;whiteSpace=wrap;html=1;fillColor=#FF6666;" parent="1" vertex="1">
          <mxGeometry x="280" y="600" width="120" height="60" as="geometry" />
        </mxCell>
        <mxCell id="iODqSjRYQpv7o8orPfvo-83" value="&lt;font color=&quot;#3333ff&quot; style=&quot;font-size: 18px;&quot;&gt;Direct_Pay&lt;/font&gt;" style="text;html=1;align=center;verticalAlign=middle;resizable=0;points=[];autosize=1;strokeColor=none;fillColor=none;" parent="1" vertex="1">
          <mxGeometry x="160" y="560" width="110" height="40" as="geometry" />
        </mxCell>
        <mxCell id="iODqSjRYQpv7o8orPfvo-84" value="O_Name" style="rounded=0;whiteSpace=wrap;html=1;" parent="1" vertex="1">
          <mxGeometry x="280" y="800" width="120" height="60" as="geometry" />
        </mxCell>
        <mxCell id="iODqSjRYQpv7o8orPfvo-85" value="House_No" style="rounded=0;whiteSpace=wrap;html=1;" parent="1" vertex="1">
          <mxGeometry x="400" y="800" width="120" height="60" as="geometry" />
        </mxCell>
        <mxCell id="iODqSjRYQpv7o8orPfvo-86" value="Street" style="rounded=0;whiteSpace=wrap;html=1;" parent="1" vertex="1">
          <mxGeometry x="520" y="800" width="120" height="60" as="geometry" />
        </mxCell>
        <mxCell id="iODqSjRYQpv7o8orPfvo-87" value="City" style="rounded=0;whiteSpace=wrap;html=1;" parent="1" vertex="1">
          <mxGeometry x="640" y="800" width="120" height="60" as="geometry" />
        </mxCell>
        <mxCell id="iODqSjRYQpv7o8orPfvo-88" value="Postal_Code" style="rounded=0;whiteSpace=wrap;html=1;" parent="1" vertex="1">
          <mxGeometry x="760" y="800" width="120" height="60" as="geometry" />
        </mxCell>
        <mxCell id="iODqSjRYQpv7o8orPfvo-89" value="M_Id" style="rounded=0;whiteSpace=wrap;html=1;fillColor=#FF6666;" parent="1" vertex="1">
          <mxGeometry x="880" y="800" width="120" height="60" as="geometry" />
        </mxCell>
        <mxCell id="iODqSjRYQpv7o8orPfvo-90" value="O_Id" style="rounded=0;whiteSpace=wrap;html=1;fillColor=#1ba1e2;fontColor=#ffffff;strokeColor=#006EAF;gradientColor=#6666FF;fontStyle=4" parent="1" vertex="1">
          <mxGeometry x="160" y="800" width="120" height="60" as="geometry" />
        </mxCell>
        <mxCell id="iODqSjRYQpv7o8orPfvo-91" value="&lt;font color=&quot;#3333ff&quot; style=&quot;font-size: 18px;&quot;&gt;Outlet&lt;/font&gt;" style="text;html=1;align=center;verticalAlign=middle;resizable=0;points=[];autosize=1;strokeColor=none;fillColor=none;" parent="1" vertex="1">
          <mxGeometry x="160" y="760" width="70" height="40" as="geometry" />
        </mxCell>
        <mxCell id="iODqSjRYQpv7o8orPfvo-92" value="O_Phone" style="rounded=0;whiteSpace=wrap;html=1;" parent="1" vertex="1">
          <mxGeometry x="280" y="1040" width="120" height="60" as="geometry" />
        </mxCell>
        <mxCell id="iODqSjRYQpv7o8orPfvo-93" value="O_Email" style="rounded=0;whiteSpace=wrap;html=1;" parent="1" vertex="1">
          <mxGeometry x="280" y="1250" width="120" height="60" as="geometry" />
        </mxCell>
        <mxCell id="iODqSjRYQpv7o8orPfvo-94" value="&lt;font color=&quot;#3333ff&quot; style=&quot;font-size: 18px;&quot;&gt;Outlet_Contact&lt;/font&gt;" style="text;html=1;align=center;verticalAlign=middle;resizable=0;points=[];autosize=1;strokeColor=none;fillColor=none;" parent="1" vertex="1">
          <mxGeometry x="160" y="1000" width="140" height="40" as="geometry" />
        </mxCell>
        <mxCell id="iODqSjRYQpv7o8orPfvo-95" value="&lt;font color=&quot;#3333ff&quot; style=&quot;font-size: 18px;&quot;&gt;Outlet_Email&lt;/font&gt;" style="text;html=1;align=center;verticalAlign=middle;resizable=0;points=[];autosize=1;strokeColor=none;fillColor=none;" parent="1" vertex="1">
          <mxGeometry x="160" y="1210" width="130" height="40" as="geometry" />
        </mxCell>
        <mxCell id="iODqSjRYQpv7o8orPfvo-96" value="O_Id" style="rounded=0;whiteSpace=wrap;html=1;fillColor=#FF6666;" parent="1" vertex="1">
          <mxGeometry x="160" y="1040" width="120" height="60" as="geometry" />
        </mxCell>
        <mxCell id="iODqSjRYQpv7o8orPfvo-97" value="O_Id" style="rounded=0;whiteSpace=wrap;html=1;fillColor=#FF6666;" parent="1" vertex="1">
          <mxGeometry x="160" y="1250" width="120" height="60" as="geometry" />
        </mxCell>
        <mxCell id="iODqSjRYQpv7o8orPfvo-98" value="O_Id" style="rounded=0;whiteSpace=wrap;html=1;fontStyle=1;fillColor=#FF6666;" parent="1" vertex="1">
          <mxGeometry x="160" y="1480" width="120" height="60" as="geometry" />
        </mxCell>
        <mxCell id="iODqSjRYQpv7o8orPfvo-99" value="Sup_Id" style="rounded=0;whiteSpace=wrap;html=1;fontStyle=1;fillColor=#FF6666;" parent="1" vertex="1">
          <mxGeometry x="280" y="1480" width="120" height="60" as="geometry" />
        </mxCell>
        <mxCell id="iODqSjRYQpv7o8orPfvo-100" value="&lt;font color=&quot;#3333ff&quot; style=&quot;font-size: 18px;&quot;&gt;Supply&lt;/font&gt;" style="text;html=1;align=center;verticalAlign=middle;resizable=0;points=[];autosize=1;strokeColor=none;fillColor=none;" parent="1" vertex="1">
          <mxGeometry x="160" y="1440" width="80" height="40" as="geometry" />
        </mxCell>
        <mxCell id="iODqSjRYQpv7o8orPfvo-101" value="S_Name" style="rounded=0;whiteSpace=wrap;html=1;" parent="1" vertex="1">
          <mxGeometry x="280" y="1710" width="120" height="60" as="geometry" />
        </mxCell>
        <mxCell id="iODqSjRYQpv7o8orPfvo-102" value="S_Address" style="rounded=0;whiteSpace=wrap;html=1;" parent="1" vertex="1">
          <mxGeometry x="400" y="1710" width="120" height="60" as="geometry" />
        </mxCell>
        <mxCell id="iODqSjRYQpv7o8orPfvo-103" value="M_Id" style="rounded=0;whiteSpace=wrap;html=1;fillColor=#FF6666;" parent="1" vertex="1">
          <mxGeometry x="520" y="1710" width="120" height="60" as="geometry" />
        </mxCell>
        <mxCell id="iODqSjRYQpv7o8orPfvo-104" value="Sup_Id" style="rounded=0;whiteSpace=wrap;html=1;fillColor=#1ba1e2;fontColor=#ffffff;strokeColor=#006EAF;gradientColor=#6666FF;fontStyle=4" parent="1" vertex="1">
          <mxGeometry x="160" y="1710" width="120" height="60" as="geometry" />
        </mxCell>
        <mxCell id="iODqSjRYQpv7o8orPfvo-105" value="&lt;font color=&quot;#3333ff&quot; style=&quot;font-size: 18px;&quot;&gt;Supplier&lt;/font&gt;" style="text;html=1;align=center;verticalAlign=middle;resizable=0;points=[];autosize=1;strokeColor=none;fillColor=none;" parent="1" vertex="1">
          <mxGeometry x="160" y="1670" width="90" height="40" as="geometry" />
        </mxCell>
        <mxCell id="iODqSjRYQpv7o8orPfvo-106" value="Sup_Id" style="rounded=0;whiteSpace=wrap;html=1;fillColor=#FF6666;fontColor=#ffffff;strokeColor=#660000;" parent="1" vertex="1">
          <mxGeometry x="160" y="1930" width="120" height="60" as="geometry" />
        </mxCell>
        <mxCell id="iODqSjRYQpv7o8orPfvo-107" value="S_Phone" style="rounded=0;whiteSpace=wrap;html=1;" parent="1" vertex="1">
          <mxGeometry x="280" y="1930" width="120" height="60" as="geometry" />
        </mxCell>
        <mxCell id="iODqSjRYQpv7o8orPfvo-108" value="Sup_Id" style="rounded=0;whiteSpace=wrap;html=1;fillColor=#FF6666;" parent="1" vertex="1">
          <mxGeometry x="160" y="2130" width="120" height="60" as="geometry" />
        </mxCell>
        <mxCell id="iODqSjRYQpv7o8orPfvo-109" value="S_Email" style="rounded=0;whiteSpace=wrap;html=1;" parent="1" vertex="1">
          <mxGeometry x="280" y="2130" width="120" height="60" as="geometry" />
        </mxCell>
        <mxCell id="iODqSjRYQpv7o8orPfvo-110" value="&lt;font color=&quot;#3333ff&quot; style=&quot;font-size: 18px;&quot;&gt;Supplier_Contact&lt;/font&gt;" style="text;html=1;align=center;verticalAlign=middle;resizable=0;points=[];autosize=1;strokeColor=none;fillColor=none;" parent="1" vertex="1">
          <mxGeometry x="160" y="1890" width="160" height="40" as="geometry" />
        </mxCell>
        <mxCell id="iODqSjRYQpv7o8orPfvo-111" value="&lt;font color=&quot;#3333ff&quot; style=&quot;font-size: 18px;&quot;&gt;Supplier_Email&lt;/font&gt;" style="text;html=1;align=center;verticalAlign=middle;resizable=0;points=[];autosize=1;strokeColor=none;fillColor=none;" parent="1" vertex="1">
          <mxGeometry x="160" y="2090" width="140" height="40" as="geometry" />
        </mxCell>
        <mxCell id="iODqSjRYQpv7o8orPfvo-114" value="" style="edgeStyle=segmentEdgeStyle;endArrow=classic;html=1;curved=0;rounded=0;endSize=8;startSize=8;entryX=0.5;entryY=1;entryDx=0;entryDy=0;exitX=0.5;exitY=1;exitDx=0;exitDy=0;" parent="1" source="iODqSjRYQpv7o8orPfvo-1" target="iODqSjRYQpv7o8orPfvo-10" edge="1">
          <mxGeometry width="50" height="50" relative="1" as="geometry">
            <mxPoint x="330" y="-1700" as="sourcePoint" />
            <mxPoint x="380" y="-1750" as="targetPoint" />
            <Array as="points">
              <mxPoint x="340" y="-1920" />
              <mxPoint x="150" y="-1920" />
              <mxPoint x="150" y="-1790" />
              <mxPoint x="220" y="-1790" />
            </Array>
          </mxGeometry>
        </mxCell>
        <mxCell id="iODqSjRYQpv7o8orPfvo-115" value="" style="edgeStyle=segmentEdgeStyle;endArrow=classic;html=1;curved=0;rounded=0;endSize=8;startSize=8;exitX=0.5;exitY=1;exitDx=0;exitDy=0;entryX=0.569;entryY=0.044;entryDx=0;entryDy=0;entryPerimeter=0;" parent="1" source="iODqSjRYQpv7o8orPfvo-3" target="iODqSjRYQpv7o8orPfvo-12" edge="1">
          <mxGeometry width="50" height="50" relative="1" as="geometry">
            <mxPoint x="480" y="-1660" as="sourcePoint" />
            <mxPoint x="350" y="-1580" as="targetPoint" />
            <Array as="points">
              <mxPoint x="220" y="-2020" />
              <mxPoint x="130" y="-2020" />
              <mxPoint x="130" y="-1680" />
              <mxPoint x="350" y="-1680" />
              <mxPoint x="350" y="-1642" />
              <mxPoint x="348" y="-1642" />
            </Array>
          </mxGeometry>
        </mxCell>
        <mxCell id="iODqSjRYQpv7o8orPfvo-123" value="" style="edgeStyle=segmentEdgeStyle;endArrow=classic;html=1;curved=0;rounded=0;endSize=8;startSize=8;entryX=-0.012;entryY=0.767;entryDx=0;entryDy=0;exitX=0.5;exitY=1;exitDx=0;exitDy=0;entryPerimeter=0;" parent="1" source="iODqSjRYQpv7o8orPfvo-2" target="iODqSjRYQpv7o8orPfvo-90" edge="1">
          <mxGeometry width="50" height="50" relative="1" as="geometry">
            <mxPoint x="1320" y="-945" as="sourcePoint" />
            <mxPoint x="660" y="1220" as="targetPoint" />
            <Array as="points">
              <mxPoint x="460" y="-2030" />
              <mxPoint x="540" y="-2030" />
              <mxPoint x="540" y="-2140" />
              <mxPoint x="100" y="-2140" />
              <mxPoint x="100" y="846" />
            </Array>
          </mxGeometry>
        </mxCell>
        <mxCell id="iODqSjRYQpv7o8orPfvo-126" value="" style="edgeStyle=segmentEdgeStyle;endArrow=classic;html=1;curved=0;rounded=0;endSize=8;startSize=8;exitX=0.5;exitY=1;exitDx=0;exitDy=0;entryX=0.5;entryY=1;entryDx=0;entryDy=0;" parent="1" source="iODqSjRYQpv7o8orPfvo-22" target="iODqSjRYQpv7o8orPfvo-12" edge="1">
          <mxGeometry width="50" height="50" relative="1" as="geometry">
            <mxPoint x="220" y="-1450" as="sourcePoint" />
            <mxPoint x="230" y="-1570" as="targetPoint" />
            <Array as="points">
              <mxPoint x="220" y="-1330" />
              <mxPoint x="140" y="-1330" />
              <mxPoint x="140" y="-1440" />
              <mxPoint x="340" y="-1440" />
            </Array>
          </mxGeometry>
        </mxCell>
        <mxCell id="iODqSjRYQpv7o8orPfvo-127" value="" style="edgeStyle=segmentEdgeStyle;endArrow=classic;html=1;curved=0;rounded=0;endSize=8;startSize=8;entryX=0.25;entryY=1;entryDx=0;entryDy=0;exitX=0.427;exitY=1.033;exitDx=0;exitDy=0;exitPerimeter=0;" parent="1" source="iODqSjRYQpv7o8orPfvo-32" target="iODqSjRYQpv7o8orPfvo-30" edge="1">
          <mxGeometry width="50" height="50" relative="1" as="geometry">
            <mxPoint x="80" y="-1010" as="sourcePoint" />
            <mxPoint x="130" y="-1060" as="targetPoint" />
            <Array as="points">
              <mxPoint x="211" y="-890" />
              <mxPoint x="140" y="-890" />
              <mxPoint x="140" y="-1010" />
              <mxPoint x="190" y="-1010" />
            </Array>
          </mxGeometry>
        </mxCell>
        <mxCell id="iODqSjRYQpv7o8orPfvo-128" value="" style="edgeStyle=segmentEdgeStyle;endArrow=classic;html=1;curved=0;rounded=0;endSize=8;startSize=8;entryX=0.427;entryY=0.992;entryDx=0;entryDy=0;entryPerimeter=0;exitX=0.5;exitY=1;exitDx=0;exitDy=0;" parent="1" source="iODqSjRYQpv7o8orPfvo-46" target="iODqSjRYQpv7o8orPfvo-30" edge="1">
          <mxGeometry width="50" height="50" relative="1" as="geometry">
            <mxPoint x="980" y="-850" as="sourcePoint" />
            <mxPoint x="530" y="-1050" as="targetPoint" />
            <Array as="points">
              <mxPoint x="1060" y="-690" />
              <mxPoint x="1260" y="-690" />
              <mxPoint x="1260" y="-1010" />
              <mxPoint x="211" y="-1010" />
            </Array>
          </mxGeometry>
        </mxCell>
        <mxCell id="iODqSjRYQpv7o8orPfvo-130" value="" style="edgeStyle=segmentEdgeStyle;endArrow=classic;html=1;curved=0;rounded=0;endSize=8;startSize=8;entryX=0.5;entryY=1;entryDx=0;entryDy=0;exitX=0.625;exitY=1;exitDx=0;exitDy=0;exitPerimeter=0;" parent="1" source="iODqSjRYQpv7o8orPfvo-34" target="iODqSjRYQpv7o8orPfvo-45" edge="1">
          <mxGeometry width="50" height="50" relative="1" as="geometry">
            <mxPoint x="280" y="-580" as="sourcePoint" />
            <mxPoint x="220" y="-700" as="targetPoint" />
            <Array as="points">
              <mxPoint x="350" y="-490" />
              <mxPoint x="770" y="-490" />
              <mxPoint x="770" y="-610" />
              <mxPoint x="220" y="-610" />
            </Array>
          </mxGeometry>
        </mxCell>
        <mxCell id="iODqSjRYQpv7o8orPfvo-131" value="" style="edgeStyle=segmentEdgeStyle;endArrow=classic;html=1;curved=0;rounded=0;endSize=8;startSize=8;exitX=0.5;exitY=1;exitDx=0;exitDy=0;entryX=0.533;entryY=1;entryDx=0;entryDy=0;entryPerimeter=0;" parent="1" target="iODqSjRYQpv7o8orPfvo-30" edge="1">
          <mxGeometry width="50" height="50" relative="1" as="geometry">
            <mxPoint x="820" y="-280" as="sourcePoint" />
            <mxPoint x="220" y="-1130" as="targetPoint" />
            <Array as="points">
              <mxPoint x="820" y="-260" />
              <mxPoint x="1280" y="-260" />
              <mxPoint x="1280" y="-1020" />
              <mxPoint x="224" y="-1020" />
            </Array>
          </mxGeometry>
        </mxCell>
        <mxCell id="iODqSjRYQpv7o8orPfvo-134" value="" style="edgeStyle=segmentEdgeStyle;endArrow=classic;html=1;curved=0;rounded=0;endSize=8;startSize=8;entryX=0.5;entryY=1;entryDx=0;entryDy=0;exitX=0.5;exitY=1;exitDx=0;exitDy=0;" parent="1" source="iODqSjRYQpv7o8orPfvo-66" target="iODqSjRYQpv7o8orPfvo-55" edge="1">
          <mxGeometry width="50" height="50" relative="1" as="geometry">
            <mxPoint x="830" y="-60" as="sourcePoint" />
            <mxPoint x="1100" y="-108.82352941176471" as="targetPoint" />
            <Array as="points">
              <mxPoint x="690" y="-60" />
              <mxPoint x="690" y="-40" />
              <mxPoint x="140" y="-40" />
              <mxPoint x="140" y="-160" />
              <mxPoint x="220" y="-160" />
            </Array>
          </mxGeometry>
        </mxCell>
        <mxCell id="iODqSjRYQpv7o8orPfvo-137" value="" style="edgeStyle=segmentEdgeStyle;endArrow=classic;html=1;curved=0;rounded=0;endSize=8;startSize=8;entryX=0;entryY=0.5;entryDx=0;entryDy=0;exitX=0.421;exitY=1.024;exitDx=0;exitDy=0;exitPerimeter=0;" parent="1" source="iODqSjRYQpv7o8orPfvo-18" target="iODqSjRYQpv7o8orPfvo-30" edge="1">
          <mxGeometry width="50" height="50" relative="1" as="geometry">
            <mxPoint x="930" y="-1570" as="sourcePoint" />
            <mxPoint x="680" y="-1430" as="targetPoint" />
            <Array as="points">
              <mxPoint x="930" y="-1300" />
              <mxPoint x="130" y="-1300" />
              <mxPoint x="130" y="-1170" />
            </Array>
          </mxGeometry>
        </mxCell>
        <mxCell id="iODqSjRYQpv7o8orPfvo-138" value="" style="edgeStyle=segmentEdgeStyle;endArrow=classic;html=1;curved=0;rounded=0;endSize=8;startSize=8;exitX=0.5;exitY=1;exitDx=0;exitDy=0;entryX=0.25;entryY=1;entryDx=0;entryDy=0;" parent="1" source="iODqSjRYQpv7o8orPfvo-69" target="iODqSjRYQpv7o8orPfvo-12" edge="1">
          <mxGeometry width="50" height="50" relative="1" as="geometry">
            <mxPoint x="277.5" y="110.47999999999999" as="sourcePoint" />
            <mxPoint x="-203.85999999999967" y="-1410" as="targetPoint" />
            <Array as="points">
              <mxPoint x="815" y="-30" />
              <mxPoint x="110" y="-30" />
              <mxPoint x="110" y="-1460" />
              <mxPoint x="310" y="-1460" />
            </Array>
          </mxGeometry>
        </mxCell>
        <mxCell id="iODqSjRYQpv7o8orPfvo-139" value="" style="edgeStyle=segmentEdgeStyle;endArrow=classic;html=1;curved=0;rounded=0;endSize=8;startSize=8;entryX=0.5;entryY=1;entryDx=0;entryDy=0;exitX=0.5;exitY=1;exitDx=0;exitDy=0;" parent="1" source="iODqSjRYQpv7o8orPfvo-70" target="iODqSjRYQpv7o8orPfvo-79" edge="1">
          <mxGeometry width="50" height="50" relative="1" as="geometry">
            <mxPoint x="170" y="510" as="sourcePoint" />
            <mxPoint x="220" y="460" as="targetPoint" />
            <Array as="points">
              <mxPoint x="220" y="190" />
              <mxPoint x="140" y="190" />
              <mxPoint x="140" y="430" />
              <mxPoint x="220" y="430" />
            </Array>
          </mxGeometry>
        </mxCell>
        <mxCell id="iODqSjRYQpv7o8orPfvo-141" value="" style="edgeStyle=segmentEdgeStyle;endArrow=classic;html=1;curved=0;rounded=0;endSize=8;startSize=8;entryX=0.701;entryY=1.045;entryDx=0;entryDy=0;entryPerimeter=0;exitX=0.5;exitY=1;exitDx=0;exitDy=0;" parent="1" source="iODqSjRYQpv7o8orPfvo-80" edge="1">
          <mxGeometry width="50" height="50" relative="1" as="geometry">
            <mxPoint x="450" y="-800" as="sourcePoint" />
            <mxPoint x="244.12" y="-1140" as="targetPoint" />
            <Array as="points">
              <mxPoint x="940" y="430" />
              <mxPoint x="1300" y="430" />
              <mxPoint x="1300" y="-1030" />
              <mxPoint x="244" y="-1030" />
            </Array>
          </mxGeometry>
        </mxCell>
        <mxCell id="iODqSjRYQpv7o8orPfvo-143" value="" style="edgeStyle=segmentEdgeStyle;endArrow=classic;html=1;curved=0;rounded=0;endSize=8;startSize=8;entryX=0.59;entryY=1.01;entryDx=0;entryDy=0;entryPerimeter=0;exitX=0.25;exitY=1;exitDx=0;exitDy=0;" parent="1" source="iODqSjRYQpv7o8orPfvo-81" target="iODqSjRYQpv7o8orPfvo-79" edge="1">
          <mxGeometry width="50" height="50" relative="1" as="geometry">
            <mxPoint x="230" y="560" as="sourcePoint" />
            <mxPoint x="280" y="510" as="targetPoint" />
            <Array as="points">
              <mxPoint x="190" y="670" />
              <mxPoint x="150" y="670" />
              <mxPoint x="150" y="440" />
              <mxPoint x="231" y="440" />
            </Array>
          </mxGeometry>
        </mxCell>
        <mxCell id="iODqSjRYQpv7o8orPfvo-144" value="" style="edgeStyle=segmentEdgeStyle;endArrow=classic;html=1;curved=0;rounded=0;endSize=8;startSize=8;entryX=0;entryY=0.5;entryDx=0;entryDy=0;" parent="1" target="iODqSjRYQpv7o8orPfvo-90" edge="1">
          <mxGeometry width="50" height="50" relative="1" as="geometry">
            <mxPoint x="301" y="660" as="sourcePoint" />
            <mxPoint x="178.75999999999996" y="900.54" as="targetPoint" />
            <Array as="points">
              <mxPoint x="301" y="680" />
              <mxPoint x="140" y="680" />
              <mxPoint x="140" y="830" />
            </Array>
          </mxGeometry>
        </mxCell>
        <mxCell id="iODqSjRYQpv7o8orPfvo-145" value="" style="edgeStyle=segmentEdgeStyle;endArrow=classic;html=1;curved=0;rounded=0;endSize=8;startSize=8;exitX=0.5;exitY=1;exitDx=0;exitDy=0;" parent="1" source="iODqSjRYQpv7o8orPfvo-89" edge="1">
          <mxGeometry width="50" height="50" relative="1" as="geometry">
            <mxPoint x="1250" y="780" as="sourcePoint" />
            <mxPoint x="260" y="-1140" as="targetPoint" />
            <Array as="points">
              <mxPoint x="940" y="880" />
              <mxPoint x="1320" y="880" />
              <mxPoint x="1320" y="-1040" />
              <mxPoint x="260" y="-1040" />
            </Array>
          </mxGeometry>
        </mxCell>
        <mxCell id="iODqSjRYQpv7o8orPfvo-146" value="" style="edgeStyle=segmentEdgeStyle;endArrow=classic;html=1;curved=0;rounded=0;endSize=8;startSize=8;exitX=0.603;exitY=1.023;exitDx=0;exitDy=0;exitPerimeter=0;" parent="1" source="iODqSjRYQpv7o8orPfvo-96" edge="1">
          <mxGeometry width="50" height="50" relative="1" as="geometry">
            <mxPoint x="230" y="1010" as="sourcePoint" />
            <mxPoint x="205" y="860" as="targetPoint" />
            <Array as="points">
              <mxPoint x="232" y="1110" />
              <mxPoint x="140" y="1110" />
              <mxPoint x="140" y="1000" />
              <mxPoint x="205" y="1000" />
              <mxPoint x="205" y="861" />
            </Array>
          </mxGeometry>
        </mxCell>
        <mxCell id="iODqSjRYQpv7o8orPfvo-147" value="" style="edgeStyle=segmentEdgeStyle;endArrow=classic;html=1;curved=0;rounded=0;endSize=8;startSize=8;entryX=0.25;entryY=1;entryDx=0;entryDy=0;exitX=0;exitY=0.5;exitDx=0;exitDy=0;" parent="1" source="iODqSjRYQpv7o8orPfvo-97" target="iODqSjRYQpv7o8orPfvo-90" edge="1">
          <mxGeometry width="50" height="50" relative="1" as="geometry">
            <mxPoint x="60" y="1190" as="sourcePoint" />
            <mxPoint x="110" y="1140" as="targetPoint" />
            <Array as="points">
              <mxPoint x="130" y="1280" />
              <mxPoint x="130" y="990" />
              <mxPoint x="190" y="990" />
            </Array>
          </mxGeometry>
        </mxCell>
        <mxCell id="iODqSjRYQpv7o8orPfvo-148" value="" style="edgeStyle=segmentEdgeStyle;endArrow=classic;html=1;curved=0;rounded=0;endSize=8;startSize=8;entryX=0.135;entryY=0.987;entryDx=0;entryDy=0;entryPerimeter=0;exitX=0.5;exitY=1;exitDx=0;exitDy=0;" parent="1" source="iODqSjRYQpv7o8orPfvo-98" target="iODqSjRYQpv7o8orPfvo-90" edge="1">
          <mxGeometry width="50" height="50" relative="1" as="geometry">
            <mxPoint x="40" y="1440" as="sourcePoint" />
            <mxPoint x="70" y="1130" as="targetPoint" />
            <Array as="points">
              <mxPoint x="220" y="1590" />
              <mxPoint x="120" y="1590" />
              <mxPoint x="120" y="980" />
              <mxPoint x="176" y="980" />
            </Array>
          </mxGeometry>
        </mxCell>
        <mxCell id="iODqSjRYQpv7o8orPfvo-149" value="" style="edgeStyle=segmentEdgeStyle;endArrow=classic;html=1;curved=0;rounded=0;endSize=8;startSize=8;entryX=0.417;entryY=1;entryDx=0;entryDy=0;entryPerimeter=0;exitX=0.25;exitY=1;exitDx=0;exitDy=0;" parent="1" source="iODqSjRYQpv7o8orPfvo-99" target="iODqSjRYQpv7o8orPfvo-104" edge="1">
          <mxGeometry width="50" height="50" relative="1" as="geometry">
            <mxPoint x="360" y="1640" as="sourcePoint" />
            <mxPoint x="410" y="1590" as="targetPoint" />
            <Array as="points">
              <mxPoint x="310" y="1640" />
              <mxPoint x="150" y="1640" />
              <mxPoint x="150" y="1790" />
              <mxPoint x="210" y="1790" />
            </Array>
          </mxGeometry>
        </mxCell>
        <mxCell id="iODqSjRYQpv7o8orPfvo-150" value="" style="edgeStyle=segmentEdgeStyle;endArrow=classic;html=1;curved=0;rounded=0;endSize=8;startSize=8;exitX=0.5;exitY=1;exitDx=0;exitDy=0;entryX=1;entryY=1;entryDx=0;entryDy=0;" parent="1" source="iODqSjRYQpv7o8orPfvo-103" target="iODqSjRYQpv7o8orPfvo-30" edge="1">
          <mxGeometry width="50" height="50" relative="1" as="geometry">
            <mxPoint x="390" y="1880" as="sourcePoint" />
            <mxPoint x="440" y="1830" as="targetPoint" />
            <Array as="points">
              <mxPoint x="580" y="1790" />
              <mxPoint x="1340" y="1790" />
              <mxPoint x="1340" y="-1050" />
              <mxPoint x="280" y="-1050" />
            </Array>
          </mxGeometry>
        </mxCell>
        <mxCell id="iODqSjRYQpv7o8orPfvo-151" value="" style="edgeStyle=segmentEdgeStyle;endArrow=classic;html=1;curved=0;rounded=0;endSize=8;startSize=8;entryX=0.5;entryY=1;entryDx=0;entryDy=0;exitX=0.5;exitY=1;exitDx=0;exitDy=0;" parent="1" source="iODqSjRYQpv7o8orPfvo-106" target="iODqSjRYQpv7o8orPfvo-104" edge="1">
          <mxGeometry width="50" height="50" relative="1" as="geometry">
            <mxPoint x="180" y="1900" as="sourcePoint" />
            <mxPoint x="230" y="1850" as="targetPoint" />
            <Array as="points">
              <mxPoint x="220" y="2000" />
              <mxPoint x="140" y="2000" />
              <mxPoint x="140" y="1800" />
              <mxPoint x="220" y="1800" />
            </Array>
          </mxGeometry>
        </mxCell>
        <mxCell id="iODqSjRYQpv7o8orPfvo-152" value="" style="edgeStyle=segmentEdgeStyle;endArrow=classic;html=1;curved=0;rounded=0;endSize=8;startSize=8;entryX=0.75;entryY=1;entryDx=0;entryDy=0;exitX=0.5;exitY=1;exitDx=0;exitDy=0;" parent="1" source="iODqSjRYQpv7o8orPfvo-108" target="iODqSjRYQpv7o8orPfvo-104" edge="1">
          <mxGeometry width="50" height="50" relative="1" as="geometry">
            <mxPoint x="200" y="1830" as="sourcePoint" />
            <mxPoint x="250" y="1780" as="targetPoint" />
            <Array as="points">
              <mxPoint x="220" y="2210" />
              <mxPoint x="410" y="2210" />
              <mxPoint x="410" y="1800" />
              <mxPoint x="250" y="1800" />
            </Array>
          </mxGeometry>
        </mxCell>
        <mxCell id="iODqSjRYQpv7o8orPfvo-153" value="" style="edgeStyle=segmentEdgeStyle;endArrow=classic;html=1;curved=0;rounded=0;endSize=8;startSize=8;exitX=0.5;exitY=1;exitDx=0;exitDy=0;entryX=0.75;entryY=0;entryDx=0;entryDy=0;" parent="1" source="iODqSjRYQpv7o8orPfvo-71" target="iODqSjRYQpv7o8orPfvo-67" edge="1">
          <mxGeometry width="50" height="50" relative="1" as="geometry">
            <mxPoint x="450" y="220" as="sourcePoint" />
            <mxPoint x="870" y="160" as="targetPoint" />
            <Array as="points">
              <mxPoint x="340" y="190" />
              <mxPoint x="1000" y="190" />
              <mxPoint x="1000" y="-150" />
              <mxPoint x="245" y="-150" />
            </Array>
          </mxGeometry>
        </mxCell>
        <mxCell id="iODqSjRYQpv7o8orPfvo-156" value="&lt;font color=&quot;#3333ff&quot; style=&quot;font-size: 18px;&quot;&gt;Employee&lt;/font&gt;" style="text;html=1;align=center;verticalAlign=middle;resizable=0;points=[];autosize=1;strokeColor=none;fillColor=none;" parent="1" vertex="1">
          <mxGeometry x="160" y="-810" width="100" height="40" as="geometry" />
        </mxCell>
      </root>
    </mxGraphModel>
  </diagram>
</mxfile>
